<svg t="1702450763794" class="icon" viewBox="0 0 1024 1024" version="1.1" xmlns="http://www.w3.org/2000/svg" p-id="1075" width="200" height="200"><path d="M249.9584 731.1872a85.0944 85.0944 0 1 1 85.0944-85.0944 85.1968 85.1968 0 0 1-85.0944 85.0944z m0-118.9888a33.8944 33.8944 0 1 0 33.8944 33.8944 33.9456 33.9456 0 0 0-33.8944-33.8944zM768.8704 731.1872a85.0944 85.0944 0 1 1 85.0944-85.0944 85.1968 85.1968 0 0 1-85.0944 85.0944z m0-118.9888a33.8944 33.8944 0 1 0 33.8944 33.8944 33.9456 33.9456 0 0 0-33.8944-33.8944z" fill="#585266" p-id="1076"></path><path d="M813.6704 266.9568a25.6 25.6 0 0 1-20.48-10.24 247.1936 247.1936 0 0 0-19.4048-22.6304 25.6 25.6 0 1 1 36.6592-35.84 285.8496 285.8496 0 0 1 23.6032 27.4944 25.6 25.6 0 0 1-20.48 40.96z" fill="#FF64C8" p-id="1077"></path><path d="M806.5024 914.7904a94.464 94.464 0 0 1-92.16-73.3184H294.0928a94.3104 94.3104 0 0 1-186.2656-20.48 153.2928 153.2928 0 0 1-76.8-133.12v-65.6896a193.792 193.792 0 0 1 100.6592-169.8304V397.6704a286.0032 286.0032 0 0 1 285.696-285.6448h188.416a286.1568 286.1568 0 0 1 139.1616 36.096 25.6 25.6 0 1 1-24.9856 44.6976 234.8032 234.8032 0 0 0-114.176-29.5936h-188.416a234.752 234.752 0 0 0-234.496 234.4448v70.6048a25.6 25.6 0 0 1-15.36 23.3984 142.592 142.592 0 0 0-85.248 130.5088v65.6896a102.4 102.4 0 0 0 62.6176 94.4128 25.6 25.6 0 0 1 15.36 29.0304 40.96 40.96 0 0 0-1.024 9.216 43.1104 43.1104 0 0 0 86.1696 0v-2.9184a25.6 25.6 0 0 1 25.6-27.3408h467.456a25.6 25.6 0 0 1 25.6 27.3408v2.9184a43.1104 43.1104 0 0 0 86.2208 0 38.5024 38.5024 0 0 0-0.5632-6.2976 25.6 25.6 0 0 1 18.0224-28.2112 103.0656 103.0656 0 0 0 73.0624-98.1504v-65.6896a142.592 142.592 0 0 0-84.6848-130.2016 25.6 25.6 0 0 1-15.36-23.3984V397.6704a234.8032 234.8032 0 0 0-11.7248-73.5232 25.6 25.6 0 0 1 48.64-16.0256 286.2592 286.2592 0 0 1 14.2848 89.5488v55.0912a193.792 193.792 0 0 1 99.8912 169.4208v65.6896a154.7264 154.7264 0 0 1-90.8288 140.1856 94.4128 94.4128 0 0 1-94.5152 86.7328z" fill="#585266" p-id="1078"></path><path d="M732.16 482.7648H291.1232a25.6 25.6 0 0 1-25.6-25.6V380.0064c0-81.92 84.0704-148.224 187.4432-148.224h117.248c103.3728 0 187.4432 66.56 187.4432 148.224v77.1584a25.6 25.6 0 0 1-25.4976 25.6z m-415.3344-51.2H706.56V380.0064c0-53.504-61.1328-97.024-136.2432-97.024H452.9664c-75.1104 0-136.2432 43.52-136.2432 97.024z" fill="#585266" p-id="1079"></path></svg>